<svg width="256" height="256" viewBox="0 0 16 16" xmlns="http://www.w3.org/2000/svg"><rect x="0" y="0" width="16" height="16" rx="8" fill="none"/><svg xmlns="http://www.w3.org/2000/svg" viewBox="0 0 16 16" fill="#3598e3" x="0" y="0" width="16" height="16"><path fill="#3598e3" d="M5 16v-5.3c-.6-.3-1-1-1-1.7V5c0-.7.4-1.3 1-1.7V3c0-1.1-.9-2-2-2s-2 .9-2 2s.9 2 2 2H1c-.5 0-1 .5-1 1v4c0 .5.5 1 1 1v5h4zM15 5h-2c1.1 0 2-.9 2-2s-.9-2-2-2s-2 .9-2 2v.3c.6.4 1 1 1 1.7v4c0 .7-.4 1.4-1 1.7V16h4v-5c.5 0 1-.5 1-1V6c0-.5-.5-1-1-1zm-5-3a2 2 0 1 1-3.999.001A2 2 0 0 1 10 2z"/><path fill="#3598e3" d="M10 4H6c-.5 0-1 .5-1 1v4c0 .5.5 1 1 1v6h4v-6c.5 0 1-.5 1-1V5c0-.5-.5-1-1-1z"/></svg></svg>